<svg t="1721985202398" class="icon" viewBox="0 0 1024 1024" version="1.1" xmlns="http://www.w3.org/2000/svg" p-id="43100" width="200" height="200"><path d="M836.608 41.890909c81.92 0 148.573091 65.629091 150.155636 147.083636V859.973818c0 81.92-65.629091 148.573091-147.083636 150.155637H168.680727c-81.92 0-148.573091-65.629091-150.155636-147.083637V191.953455C18.618182 110.126545 84.247273 43.473455 165.701818 41.890909H836.701091z m-352.162909 279.272727H186.181818v415.371637h308.130909v-58.181818H253.952v-125.672728h216.622545v-58.181818H253.952V379.345455h230.493091V321.163636z m222.394182 106.496c-17.966545 0-34.164364 3.444364-49.245091 11.077819a119.714909 119.714909 0 0 0-39.377455 31.930181v-34.909091h-66.094545v300.776728h66.094545V555.752727c2.327273-23.831273 10.426182-42.542545 24.296728-55.296a60.322909 60.322909 0 0 1 42.821818-17.501091c45.242182 0 67.863273 24.482909 67.863272 73.914182v179.758546H819.2V551.098182c0-82.664727-37.608727-123.345455-112.360727-123.345455z" fill="#fff" p-id="43101"></path></svg>