<svg t="1721984730029" class="icon" viewBox="0 0 1024 1024" version="1.1" xmlns="http://www.w3.org/2000/svg" p-id="4320" width="200" height="200"><path d="M641.365333 349.184h-65.706666v149.845333h65.706666c63.317333 0 97.621333-26.112 97.621334-78.848s-34.304-70.997333-97.621334-70.997333z" fill="#fff" p-id="4321"></path><path d="M873.472 49.664H150.528a100.693333 100.693333 0 0 0-100.864 100.864v722.944a100.693333 100.693333 0 0 0 100.864 100.864h722.944a100.693333 100.693333 0 0 0 100.864-100.864V150.528a100.693333 100.693333 0 0 0-100.864-100.864zM459.605333 351.573333h-189.44v133.12h161.109334v57.514667h-161.109334v187.733333h-68.266666V294.229333h257.706666z m285.354667 378.197334l-98.986667-175.786667h-70.314666v175.786667h-68.266667V294.229333h142.677333c89.941333 0 157.525333 31.914667 157.525334 125.952A121.173333 121.173333 0 0 1 716.8 545.109333l106.496 184.661334z" fill="#fff" p-id="4322"></path></svg>