<?xml version="1.0" standalone="no"?><!DOCTYPE svg PUBLIC "-//W3C//DTD SVG 1.1//EN" "http://www.w3.org/Graphics/SVG/1.1/DTD/svg11.dtd"><svg t="1721918111628" class="icon" viewBox="0 0 1024 1024" version="1.1" xmlns="http://www.w3.org/2000/svg" p-id="5180" xmlns:xlink="http://www.w3.org/1999/xlink" width="200" height="200"><path d="M294.4 512h101.888v97.28H294.4zM453.632 512h102.4v97.28h-102.4z" fill="#fff" p-id="5181"></path><path d="M885.248 48.64H271.872C195.584 48.64 133.12 110.08 133.12 184.832v29.696c-73.728 3.072-133.12 62.976-133.12 136.192v488.448c0 74.752 62.464 136.192 138.752 136.192h575.488c76.288 0 138.752-61.44 138.752-136.192v-41.472h32.768c76.288 0 138.752-61.44 138.752-136.192V184.832c-0.512-74.752-62.976-136.192-139.264-136.192z m-272.896 636.416h-56.832v-22.528h-102.4V803.84H396.288v-141.312H294.4v25.088H240.128V459.264h156.16V380.928h56.832v78.336h159.232v225.792z m334.336 37.376c-16.384 16.384-38.4 25.088-61.44 25.088h-32.768V350.72c0-74.752-62.464-136.192-138.752-136.192H184.832v-29.696c0-22.528 9.216-44.032 25.6-60.416 16.384-16.384 38.4-25.088 61.44-25.088h613.376c23.04 0 45.056 9.216 61.44 25.088 16.384 16.384 25.6 37.888 25.6 60.416v476.672c0 23.04-8.704 44.544-25.6 60.928z" fill="#fff" p-id="5182"></path></svg>